<?xml version="1.0" standalone="no"?>
<!DOCTYPE svg PUBLIC "-//W3C//DTD SVG 20010904//EN"
 "http://www.w3.org/TR/2001/REC-SVG-20010904/DTD/svg10.dtd">
<svg version="1.0" xmlns="http://www.w3.org/2000/svg"
 width="200.000000pt" height="70.000000pt" viewBox="0 0 200.000000 70.000000"
 preserveAspectRatio="xMidYMid meet">

<g transform="translate(0.000000,70.000000) scale(0.100000,-0.100000)"
fill="#000000" stroke="none">
<path d="M240 555 c0 -25 1 -25 80 -25 l81 0 -3 -67 -3 -68 -62 -3 c-58 -3
-62 -1 -65 20 -5 34 -42 31 -46 -3 -5 -43 37 -69 113 -69 92 0 108 16 113 114
l4 76 -26 0 c-21 0 -26 5 -26 25 0 25 -1 25 -80 25 -79 0 -80 0 -80 -25z"/>
<path d="M520 555 c0 -18 -5 -25 -20 -25 -19 0 -20 -7 -20 -95 0 -88 1 -95 20
-95 16 0 20 7 20 35 l0 35 60 0 c57 0 60 1 60 25 0 24 -3 25 -60 25 l-60 0 0
35 0 36 73 -3 72 -3 3 -92 c2 -85 4 -93 22 -93 19 0 20 7 20 99 0 96 -1 100
-26 120 -21 17 -41 21 -95 21 -67 0 -69 -1 -69 -25z"/>
<path d="M742 515 c5 -85 18 -98 103 -103 64 -4 65 -4 65 21 0 25 -3 26 -57
29 l-58 3 -3 58 c-3 54 -4 57 -29 57 -25 0 -25 -1 -21 -65z"/>
<path d="M937 573 c-4 -3 -7 -46 -7 -95 l0 -88 -80 0 c-79 0 -80 0 -80 -25 0
-25 1 -25 79 -25 64 0 83 4 105 21 25 20 26 24 26 120 0 89 -2 99 -18 99 -10
0 -22 -3 -25 -7z"/>
<path d="M1060 555 c0 -20 -5 -25 -25 -25 -20 0 -25 -5 -25 -25 0 -44 32 -65
99 -65 72 0 91 -6 91 -31 0 -17 -8 -19 -70 -19 -40 0 -70 4 -70 10 0 6 -11 10
-25 10 -32 0 -32 -14 0 -45 21 -22 33 -25 95 -25 68 0 70 1 70 25 0 20 5 25
25 25 31 0 33 27 5 63 -18 23 -29 26 -93 29 -66 3 -72 5 -75 26 -3 21 0 22 62
22 36 0 68 -4 71 -10 3 -5 17 -10 30 -10 18 0 22 4 18 20 -9 36 -43 50 -115
50 -66 0 -68 -1 -68 -25z"/>
<path d="M1320 555 c0 -18 -5 -25 -20 -25 -18 0 -20 -7 -20 -75 0 -102 13
-115 116 -115 72 0 75 1 72 23 -3 20 -10 22 -73 27 l-70 5 -3 68 -3 68 73 -3
73 -3 3 -67 c3 -60 5 -68 22 -68 18 0 20 7 20 74 0 69 -2 76 -26 95 -21 17
-41 21 -95 21 -67 0 -69 -1 -69 -25z"/>
<path d="M1590 556 c0 -13 6 -29 14 -35 8 -6 24 -38 36 -71 22 -59 59 -110 80
-110 14 0 13 40 -3 59 -7 9 -26 47 -41 84 -35 84 -86 127 -86 73z"/>
<path d="M1730 485 c0 -95 0 -95 25 -95 25 0 25 0 25 95 0 95 0 95 -25 95 -25
0 -25 0 -25 -95z"/>
<path d="M1540 435 c0 -95 0 -95 25 -95 25 0 25 0 25 95 0 95 0 95 -25 95 -25
0 -25 0 -25 -95z"/>
<path d="M105 306 c-22 -22 -25 -34 -25 -96 0 -62 3 -74 25 -95 21 -22 33 -25
95 -25 68 0 70 1 70 25 0 20 5 25 25 25 23 0 25 4 25 45 l0 45 -70 0 c-63 0
-70 -2 -70 -20 0 -17 7 -20 45 -20 42 0 45 -2 45 -25 0 -26 -1 -26 -67 -23
l-68 3 0 65 0 65 80 5 c72 4 80 7 80 25 0 18 -8 20 -83 23 -76 3 -84 1 -107
-22z"/>
<path d="M400 305 c0 -23 3 -24 68 -27 l67 -3 3 -93 c3 -90 3 -92 27 -92 25 0
25 1 25 85 0 89 -15 137 -45 149 -9 3 -46 6 -81 6 -61 0 -64 -1 -64 -25z"/>
<path d="M660 305 c0 -14 4 -25 9 -25 5 0 22 -30 37 -67 40 -94 94 -155 94
-105 0 9 -14 44 -30 77 -16 33 -30 65 -30 71 0 16 -55 74 -69 74 -6 0 -11 -11
-11 -25z"/>
<path d="M810 235 c0 -88 1 -95 20 -95 19 0 20 7 20 95 0 88 -1 95 -20 95 -19
0 -20 -7 -20 -95z"/>
<path d="M905 305 c-22 -21 -25 -33 -25 -95 0 -62 3 -74 25 -95 21 -22 33 -25
95 -25 68 0 70 1 70 25 0 20 5 25 25 25 23 0 25 4 25 45 l0 45 -70 0 c-63 0
-70 -2 -70 -20 0 -17 7 -20 45 -20 41 0 45 -2 45 -25 0 -24 -2 -25 -70 -25
l-71 0 3 68 3 67 78 3 c74 3 77 4 77 27 0 24 -2 25 -80 25 -73 0 -83 -3 -105
-25z"/>
<path d="M1200 305 c0 -23 3 -24 68 -27 l67 -3 3 -67 3 -68 -69 0 c-80 0 -82
2 -82 86 0 47 -2 54 -20 54 -18 0 -20 -7 -20 -74 0 -69 2 -76 26 -95 21 -17
41 -21 95 -21 67 0 69 1 69 25 0 20 5 25 25 25 24 0 25 3 25 60 0 64 -18 113
-45 124 -9 3 -46 6 -81 6 -61 0 -64 -1 -64 -25z"/>
<path d="M1460 305 c0 -14 4 -25 9 -25 5 0 22 -30 37 -67 40 -94 94 -155 94
-105 0 9 -14 44 -30 77 -16 33 -30 65 -30 71 0 16 -55 74 -69 74 -6 0 -11 -11
-11 -25z"/>
<path d="M1610 235 c0 -88 1 -95 20 -95 19 0 20 7 20 95 0 88 -1 95 -20 95
-19 0 -20 -7 -20 -95z"/>
<path d="M1730 305 c0 -20 -5 -25 -25 -25 -24 0 -25 -2 -25 -70 0 -62 3 -74
25 -95 22 -23 32 -25 120 -25 95 0 95 0 95 25 0 25 0 25 -95 25 l-95 0 0 70 0
70 95 0 c95 0 95 0 95 25 0 25 0 25 -95 25 -95 0 -95 0 -95 -25z"/>
<path d="M350 185 c0 -88 1 -95 20 -95 16 0 20 7 20 35 l0 35 60 0 c57 0 60 1
60 25 0 24 -3 25 -60 25 l-60 0 0 35 c0 28 -4 35 -20 35 -19 0 -20 -7 -20 -95z"/>
<path d="M610 185 c0 -95 0 -95 25 -95 25 0 25 0 25 95 0 95 0 95 -25 95 -25
0 -25 0 -25 -95z"/>
<path d="M1410 185 c0 -95 0 -95 25 -95 25 0 25 0 25 95 0 95 0 95 -25 95 -25
0 -25 0 -25 -95z"/>
<path d="M1750 210 c0 -18 7 -20 70 -20 63 0 70 2 70 20 0 18 -7 20 -70 20
-63 0 -70 -2 -70 -20z"/>
</g>
</svg>
