<?xml version="1.0" standalone="no"?>
<!DOCTYPE svg PUBLIC "-//W3C//DTD SVG 20010904//EN"
 "http://www.w3.org/TR/2001/REC-SVG-20010904/DTD/svg10.dtd">
<svg version="1.0" xmlns="http://www.w3.org/2000/svg"
 width="500" height="500" viewBox="-10 100 300.000000 300.000000"
 preserveAspectRatio="none">
<metadata>
Created by potrace 1.10, written by Peter Selinger 2001-2011
</metadata>
<g transform="translate(0.000000,300.000000) scale(0.100000,-0.100000)"
fill="#000000" stroke="none">
<path d="M582 1930 c-335 -122 -338 -594 -5 -720 83 -31 216 -26 294 13 96 46
181 148 203 242 4 16 4 27 0 23 -4 -5 -13 1 -21 11 -8 12 -20 17 -33 14 -11
-3 -20 -1 -20 3 0 12 34 102 42 109 9 9 31 -64 30 -99 -1 -22 2 -26 8 -16 8
12 10 12 14 0 30 -96 39 -110 67 -110 16 0 29 4 29 8 0 15 -91 235 -126 305
-47 92 -112 160 -192 199 -84 41 -206 49 -290 18z m271 -33 c45 -21 56 -29 51
-44 -5 -15 -4 -16 5 -3 10 13 19 7 59 -36 26 -27 53 -62 60 -76 13 -23 12 -28
-11 -50 -18 -18 -29 -22 -36 -15 -7 7 -9 -2 -5 -29 5 -42 4 -41 -31 42 -38 89
-133 146 -240 146 -75 -1 -119 -18 -175 -68 -64 -58 -84 -105 -85 -194 0 -65
4 -82 29 -128 17 -30 47 -67 68 -84 54 -42 168 -75 168 -48 0 6 -14 10 -30 10
-71 0 -165 68 -201 145 -43 92 -12 228 67 293 130 107 317 67 388 -83 33 -68
33 -91 -2 -173 -36 -85 -49 -132 -31 -114 20 19 34 14 16 -6 -29 -32 -19 -37
13 -7 16 15 32 41 35 56 6 26 11 29 46 29 21 0 39 -5 39 -10 0 -24 -44 -95
-85 -135 -210 -210 -559 -99 -615 196 -18 93 17 217 84 297 35 41 118 93 175
109 70 20 176 11 244 -20z"/>
<path d="M596 1874 c-172 -63 -261 -272 -187 -439 63 -142 236 -224 382 -182
60 18 152 74 144 88 -3 4 -26 -7 -51 -26 -54 -42 -99 -55 -185 -55 -163 0
-299 138 -299 304 0 85 23 146 77 206 52 58 98 84 181 104 55 14 55 14 17 14
-22 1 -58 -6 -79 -14z"/>
<path d="M769 1845 c25 -8 47 -13 49 -10 10 10 -7 17 -50 21 l-43 4 44 -15z"/>
<path d="M675 1800 c-15 -7 -10 -9 23 -9 26 -1 41 3 37 9 -7 12 -32 12 -60 0z"/>
<path d="M880 1804 c0 -13 58 -69 65 -63 2 3 -11 21 -30 39 -19 19 -35 29 -35
24z"/>
<path d="M587 1774 c-15 -8 -27 -19 -27 -24 0 -14 5 -13 41 9 37 23 26 35 -14
15z"/>
<path d="M870 1724 c0 -12 39 -54 43 -47 3 5 -3 18 -13 31 -18 21 -30 28 -30
16z"/>
<path d="M505 1690 c-9 -16 -12 -30 -7 -30 4 0 16 14 25 30 10 17 13 30 8 30
-6 0 -17 -13 -26 -30z"/>
<path d="M670 1670 c0 -29 1 -30 50 -30 l50 0 0 -74 c0 -107 1 -106 -86 -106
l-74 0 0 -30 0 -30 80 0 c73 0 83 3 105 25 24 23 25 30 25 150 l0 125 -75 0
-75 0 0 -30z"/>
<path d="M470 1585 c0 -19 5 -35 10 -35 6 0 10 16 10 35 0 19 -4 35 -10 35 -5
0 -10 -16 -10 -35z"/>
<path d="M480 1500 c0 -16 23 -60 32 -60 11 0 10 7 -7 40 -16 30 -25 38 -25
20z"/>
<path d="M510 1350 c19 -17 39 -30 45 -30 5 0 -6 14 -25 30 -19 16 -39 29 -45
29 -5 0 6 -13 25 -29z"/>
<path d="M803 1307 c-31 -11 -45 -27 -23 -27 13 0 70 29 70 35 0 6 -7 5 -47
-8z"/>
<path d="M620 1291 c0 -9 71 -23 79 -16 7 8 -2 12 -41 18 -21 3 -38 2 -38 -2z"/>
<path d="M393 1828 c-97 -110 -121 -291 -55 -432 101 -216 372 -301 578 -180
77 45 158 147 178 224 4 14 -9 -5 -28 -41 -108 -205 -340 -283 -538 -183 -218
110 -285 413 -132 592 36 43 34 60 -3 20z"/>
<path d="M1260 1695 c0 -3 25 -49 55 -103 45 -80 55 -107 55 -145 0 -46 1 -47
30 -47 29 0 30 1 30 49 0 42 9 64 55 145 30 52 55 97 55 100 0 4 -14 6 -30 6
-28 0 -33 -7 -67 -75 -21 -41 -40 -75 -43 -75 -3 0 -22 34 -43 75 -34 68 -39
75 -67 75 -16 0 -30 -2 -30 -5z"/>
<path d="M1630 1680 c-15 -15 -20 -33 -20 -74 0 -71 19 -86 107 -86 l63 0 0
-32 0 -33 -85 4 -85 3 0 -31 0 -31 99 0 c92 0 101 2 115 22 9 12 16 43 16 68
0 25 -7 56 -16 68 -13 19 -24 22 -90 22 l-74 0 0 30 0 30 85 0 85 0 0 30 0 30
-90 0 c-77 0 -93 -3 -110 -20z"/>
<path d="M1953 1688 c-30 -15 -43 -58 -43 -145 0 -77 16 -126 45 -137 26 -9
151 -7 179 4 34 13 50 74 43 170 -5 65 -9 78 -32 98 -22 19 -37 22 -98 21 -40
0 -82 -5 -94 -11z m162 -138 l0 -85 -70 0 -70 0 -3 74 c-2 41 -1 80 2 88 4 10
23 13 73 11 l68 -3 0 -85z"/>
<path d="M2263 1693 c-10 -3 -13 -43 -13 -149 l0 -145 26 3 27 3 -2 109 c-1
61 -4 113 -7 118 -3 4 -1 8 5 8 5 0 12 -9 16 -19 3 -11 31 -65 61 -120 53 -97
57 -101 89 -101 19 0 36 4 39 8 2 4 6 71 7 147 l2 140 -27 3 -27 3 3 -124 c2
-69 2 -125 1 -124 0 1 -22 43 -48 92 -76 145 -83 155 -113 154 -15 0 -33 -3
-39 -6z"/>
<path d="M1591 1286 c-7 -8 -11 -32 -9 -53 3 -37 4 -38 46 -41 41 -3 42 -2 42
27 0 26 -4 31 -25 31 -14 0 -25 -4 -25 -10 0 -5 7 -10 15 -10 8 0 15 -4 15
-10 0 -5 -12 -10 -26 -10 -23 0 -25 3 -22 33 3 28 7 32 33 33 43 1 47 18 4 22
-22 2 -40 -2 -48 -12z"/>
<path d="M1774 1283 c-4 -10 -13 -33 -20 -52 -19 -46 -17 -57 4 -38 10 10 24
17 30 17 7 0 12 5 12 10 0 6 -4 10 -10 10 -5 0 -10 7 -10 15 0 28 18 15 30
-20 6 -19 18 -35 26 -35 11 0 9 11 -9 52 -25 56 -43 70 -53 41z"/>
<path d="M1917 1293 c-11 -10 -8 -103 2 -103 6 0 11 17 13 38 l3 37 20 -37
c11 -23 26 -38 37 -38 15 0 18 9 18 55 0 65 -17 74 -22 13 l-3 -43 -23 43
c-22 41 -32 49 -45 35z"/>
<path d="M2086 1284 c-16 -16 -21 -50 -10 -78 4 -11 19 -16 50 -16 42 0 44 1
44 30 0 27 -3 30 -31 30 -17 0 -28 -4 -24 -10 3 -5 13 -10 21 -10 8 0 14 -4
14 -10 0 -5 -11 -10 -25 -10 -22 0 -25 4 -25 36 0 34 1 35 32 32 19 -2 33 2
35 10 7 18 -62 15 -81 -4z"/>
<path d="M2240 1281 c-12 -24 -13 -61 -1 -79 5 -8 23 -12 47 -10 38 3 39 4 42
47 4 49 -6 61 -50 61 -17 0 -31 -7 -38 -19z m68 -39 c3 -29 1 -32 -22 -32 -22
0 -26 5 -26 28 0 33 8 44 30 40 9 -2 16 -16 18 -36z"/>
<path d="M2400 1261 c0 -22 -3 -46 -6 -55 -4 -11 -1 -16 11 -16 14 0 16 7 13
35 -2 19 -1 35 2 35 4 0 14 -16 23 -35 24 -51 47 -46 47 10 0 25 0 48 1 52 0
4 -4 9 -10 11 -7 2 -11 -13 -12 -40 l0 -43 -22 43 c-27 54 -47 55 -47 3z"/>
<path d="M2560 1288 c0 -9 13 -13 40 -12 54 2 56 18 3 22 -30 2 -43 -1 -43
-10z"/>
<path d="M2562 1223 c3 -24 8 -28 41 -31 21 -2 37 1 37 7 0 6 -13 11 -30 11
-16 0 -30 5 -30 10 0 6 14 10 30 10 17 0 30 5 30 10 0 6 -18 10 -41 10 -38 0
-40 -1 -37 -27z"/>
</g>
</svg>
